# xmcd
#
# Track frame offsets:
#	150
#	10960
#	23296
#	33839
#	43541
#	53542
#	62944
#	75664
#	85573
#	96541
#	107526
#	118308
#	127435
#	138519
#	147324
#	159624
#	171998
#	184393
#	195824
#	205530
#	216056
#	226580
#	238095
#	249309
#	258035
#	268338
#	280761
#	289742
#
# Disc length: 4024 seconds
#
# Revision: 0
# Processed by: cddbd v1.5.2PL0 Copyright (c) Steve Scherf et al.
# Submitted via: EasyCDDAExtractor 2010.6.0.0
#
DISCID=870fb61c
DTITLE=Carl Belew - Cool Gator Shoes
DYEAR=1900
DGENRE=
TTITLE0=I'm Long Gone
TTITLE1=Silence And Tears
TTITLE2=Twenty Four Hour Night
TTITLE3=No Love Tonight
TTITLE4=I Wish You Love
TTITLE5=Another Lonely Night
TTITLE6=I Can't Lose Something
TTITLE7=Every Time I'm Kissing You
TTITLE8=Am I That Easy To Forget
TTITLE9=Such Is Life
TTITLE10=No Regrets
TTITLE11=Cool Gator Shoes
TTITLE12=I Know But Tell Me Dear It Didn't Happen
TTITLE13=I Wish I'd Never
TTITLE14=Too Much To Lose
TTITLE15=That's What I Get For Loving You
TTITLE16=End Of Time
TTITLE17=There She Goes
TTITLE18=You're Doing Things To Hurt Me
TTITLE19=Can't You Hear Me Call Your Name
TTITLE20=I Don't Know How I'll Live
TTITLE21=Release Me
TTITLE22=It Happened When I Really Needed You
TTITLE23=Lonely Street
TTITLE24=Stop The World
TTITLE25=I Can't Forget
TTITLE26=My Baby's Not Here In Town Tonight
TTITLE27=Just Out Of Reach
EXTD=
EXTT0=
EXTT1=
EXTT2=
EXTT3=
EXTT4=
EXTT5=
EXTT6=
EXTT7=
EXTT8=
EXTT9=
EXTT10=
EXTT11=
EXTT12=
EXTT13=
EXTT14=
EXTT15=
EXTT16=
EXTT17=
EXTT18=
EXTT19=
EXTT20=
EXTT21=
EXTT22=
EXTT23=
EXTT24=
EXTT25=
EXTT26=
EXTT27=
PLAYORDER=
